<svg viewBox="0 0 1010.003 1005.844" xml:space="preserve" xmlns="http://www.w3.org/2000/svg"><path d="M994.363 212.816c14.199-14.175 19.186-33.6 13.077-50.734-6.228-17.3-22.002-28.874-42.19-30.95l-78.463-7.947-8.018-78.653C876.645 24.295 865 8.569 847.651 2.484c-16.991-6.013-36.51-.907-50.519 13.125L679.175 133.494c-2.671 2.697-4.868 6.038-7.134 9.283-63.907-33.886-136.643-53.287-213.864-53.287C205.51 89.49 0 295.025 0 547.667s205.511 458.177 458.177 458.177c252.594 0 458.153-205.536 458.153-458.177 0-75.122-18.518-145.877-50.686-208.518 3.89-2.601 7.731-5.322 10.857-8.472l117.862-117.861zm-146.951 94.38c-4.51 3.483-10.261 6.228-16.394 7.922-4.915 1.36-9.903 2.196-14.294 1.766l-6.658-.668-62.164-6.3-36.535 36.535-12.98 12.982-13.175 13.172-60.994 61.019-13.148 13.125-13.363 13.387-50.973 50.972 3.34 10.62c10.644 33.862 1.814 70.349-23.123 95.238-17.898 17.922-41.618 27.8-66.913 27.8h-.048c-25.295 0-49.11-9.902-67.008-27.872-17.85-17.85-27.682-41.618-27.682-66.936 0-25.343 9.832-49.111 27.73-67.008 17.42-17.445 41.713-27.443 66.722-27.443 9.736 0 19.33 1.455 28.54 4.342l10.596 3.342 51.903-51.903 13.125-13.125 13.005-13.03 61.018-60.995 13.15-13.172 12.98-12.982 36.01-36.01-6.466-63.786-.501-4.82c-.478-4.869.429-10.43 2.076-15.846 1.837-6.085 4.749-11.74 8.4-16.084.548-.668.978-1.503 1.55-2.076L823.072 41.525c4.009-4.057 8.4-5.847 12.408-4.487 5.299 1.862 6.54 8.543 6.826 11.264l11.025 108.34 108.196 10.953c2.792.286 9.498 1.527 11.406 6.849 1.313 3.698-.334 8.352-4.462 12.456L850.562 304.786c-.86.858-2.1 1.598-3.15 2.41zM458.177 969.19c-232.43 0-421.523-189.094-421.523-421.523 0-232.43 189.094-421.523 421.523-421.523 72.235 0 140.269 18.304 199.76 50.471-1.289 6.92-1.957 13.84-1.313 20.403l5.227 51.354-27.825 27.825c-50.686-32.955-111.013-52.309-175.85-52.309-178.545 0-323.778 145.233-323.778 323.779s145.233 323.778 323.779 323.778c178.498 0 323.754-145.232 323.754-323.778 0-62.69-18.207-121.083-49.182-170.719l28.803-28.803 51.45 5.202c5.965.597 12.193.215 18.47-.787 30.64 58.417 48.203 124.71 48.203 195.107 0 232.43-189.093 421.523-421.498 421.523zm129.817-447.487 26.44-26.44c5.536 16.49 8.663 34.077 8.663 52.404 0 90.967-74 164.943-164.92 164.943-90.968 0-164.944-73.976-164.944-164.943 0-90.967 73.976-164.944 164.944-164.944 20.594 0 40.233 3.961 58.442 10.906l-28.327 28.325c-43.001-9.545-90.25 4.081-121.178 35.08-24.818 24.794-38.467 57.797-38.467 92.924 0 35.103 13.65 68.082 38.372 92.828 24.817 24.914 57.844 38.635 93.02 38.635 35.078 0 68.057-13.697 92.804-38.54 31.953-31.88 44.91-77.411 35.15-121.178zM458.177 346.07c-111.156 0-201.598 90.442-201.598 201.598 0 111.156 90.442 201.597 201.598 201.597 111.131 0 201.574-90.44 201.574-201.597 0-28.708-6.133-55.984-16.992-80.73l63.358-63.357c24.747 42.43 39.16 91.54 39.16 144.087 0 158.31-128.815 287.124-287.1 287.124-158.358 0-287.124-128.815-287.124-287.124s128.766-287.124 287.124-287.124c54.695 0 105.643 15.654 149.217 42.31l-62.928 62.903c-26.2-12.48-55.386-19.687-86.29-19.687z" fill="#ffffff" class="fill-1a1a1a"></path></svg>