<svg viewBox="0 0 64 64" xmlns="http://www.w3.org/2000/svg"><g data-name="25-Hot cooking"><path d="M55 23a3.511 3.511 0 0 0-2.963-3.467L36 17h-8l-16.037 2.532A3.511 3.511 0 0 0 9 23M25 1c0 1.333-2 1.333-2 2.667S25 5 25 6.333 23 7.667 23 9M33 1c0 1.333-2 1.333-2 2.667S33 5 33 6.333 31 7.667 31 9M41 1c0 1.333-2 1.333-2 2.667S41 5 41 6.333 39 7.667 39 9M60 60h3v3H1v-3h3M6 60h52M36 55a4 4 0 0 1-8 0c0-2.209 3-8 4-8s4 5.791 4 8ZM52 55a4 4 0 0 1-4 4c-2.209 0-4-.791-4-3s5-9 6-9 2 5.791 2 8ZM12 55a4 4 0 0 0 4 4c2.209 0 4-.791 4-3s-5-9-6-9-2 5.791-2 8Z" fill="none" stroke="#ffffff" stroke-linejoin="round" stroke-width="2px" class="stroke-000000"></path><path d="M51 57a4 4 0 0 0 4-4V23H9v30a4 4 0 0 0 4 4M35 57h9M20 57h9M58 27h4a1 1 0 0 1 1 1v2a1 1 0 0 1-1 1h-7v-4M60 31l-1.447 2.894A2 2 0 0 1 56.764 35H55M6 27H2a1 1 0 0 0-1 1v2a1 1 0 0 0 1 1h7v-4M4 31l1.447 2.894A2 2 0 0 0 7.236 35H9M12 27H9M16 27h-2M55 27H18M32 11a4 4 0 0 1 4 4v2h-8v-2a4 4 0 0 1 4-4Z" fill="none" stroke="#ffffff" stroke-linejoin="round" stroke-width="2px" class="stroke-000000"></path></g></svg>